<svg width="34" height="26" viewBox="0 0 34 26" fill="none" xmlns="http://www.w3.org/2000/svg">
<path d="M25.0952 12.2262V13.7738C25.0952 14.093 24.7537 14.3542 24.3363 14.3542H18.7708V18.6101C18.7708 18.9293 18.4293 19.1905 18.0119 19.1905H15.9881C15.5707 19.1905 15.2292 18.9293 15.2292 18.6101V14.3542H9.66369C9.24627 14.3542 8.90476 14.093 8.90476 13.7738V12.2262C8.90476 11.907 9.24627 11.6459 9.66369 11.6459H15.2292V7.3899C15.2292 7.0707 15.5707 6.80954 15.9881 6.80954H18.0119C18.4293 6.80954 18.7708 7.0707 18.7708 7.3899V11.6459H24.3363C24.7537 11.6459 25.0952 11.907 25.0952 12.2262ZM31.1667 4.48812V21.5119C31.1667 22.7935 29.8069 23.8334 28.1309 23.8334H5.86904C4.19308 23.8334 2.83333 22.7935 2.83333 21.5119V4.48812C2.83333 3.20649 4.19308 2.16669 5.86904 2.16669H28.1309C29.8069 2.16669 31.1667 3.20649 31.1667 4.48812ZM28.1309 21.2217V4.77829C28.1309 4.6187 27.9602 4.48812 27.7515 4.48812H6.24851C6.0398 4.48812 5.86904 4.6187 5.86904 4.77829V21.2217C5.86904 21.3813 6.0398 21.5119 6.24851 21.5119H27.7515C27.9602 21.5119 28.1309 21.3813 28.1309 21.2217Z" fill="white"/>
</svg>
