<svg width="215" height="143" viewBox="0 0 215 143" fill="none" xmlns="http://www.w3.org/2000/svg">
<path d="M32.25 61.25C44.1086 61.25 53.75 52.0944 53.75 40.8333C53.75 29.5723 44.1086 20.4167 32.25 20.4167C20.3914 20.4167 10.75 29.5723 10.75 40.8333C10.75 52.0944 20.3914 61.25 32.25 61.25ZM182.75 61.25C194.609 61.25 204.25 52.0944 204.25 40.8333C204.25 29.5723 194.609 20.4167 182.75 20.4167C170.891 20.4167 161.25 29.5723 161.25 40.8333C161.25 52.0944 170.891 61.25 182.75 61.25ZM193.5 71.4583H172C166.088 71.4583 160.746 73.7233 156.849 77.3919C170.388 84.4421 179.995 97.1706 182.078 112.292H204.25C210.196 112.292 215 107.73 215 102.083V91.875C215 80.6139 205.359 71.4583 193.5 71.4583ZM107.5 71.4583C128.295 71.4583 145.125 55.4759 145.125 35.7292C145.125 15.9824 128.295 0 107.5 0C86.7055 0 69.875 15.9824 69.875 35.7292C69.875 55.4759 86.7055 71.4583 107.5 71.4583ZM133.3 81.6667H130.512C123.524 84.8568 115.764 86.7708 107.5 86.7708C99.236 86.7708 91.5094 84.8568 84.4883 81.6667H81.7C60.3344 81.6667 43 98.1276 43 118.417V127.604C43 136.058 50.2227 142.917 59.125 142.917H155.875C164.777 142.917 172 136.058 172 127.604V118.417C172 98.1276 154.666 81.6667 133.3 81.6667ZM58.1508 77.3919C54.2539 73.7233 48.9125 71.4583 43 71.4583H21.5C9.64141 71.4583 0 80.6139 0 91.875V102.083C0 107.73 4.80391 112.292 10.75 112.292H32.8883C35.0047 97.1706 44.6125 84.4421 58.1508 77.3919Z" fill="#081025" fill-opacity="0.92"/>
</svg>
